<svg width="122" height="37" viewBox="0 0 122 37" fill="none" xmlns="http://www.w3.org/2000/svg">
<path d="M0 14.3029V10.7589H16.6979V14.3029H10.4734V31.0902H6.22447V14.3029H0Z" fill="#000000"/>
<path d="M65.1385 31.388C63.57 31.388 62.2199 31.0703 61.0882 30.4349C59.963 29.793 59.0961 28.8863 58.4872 27.7148C57.8783 26.5368 57.5739 25.1437 57.5739 23.5354C57.5739 21.9669 57.8783 20.5903 58.4872 19.4056C59.0961 18.221 59.9531 17.2977 61.0584 16.6359C62.1702 15.9741 63.474 15.6431 64.9698 15.6431C65.9757 15.6431 66.9122 15.8053 67.7792 16.1296C68.6528 16.4473 69.4139 16.9271 70.0625 17.5691C70.7177 18.211 71.2273 19.0185 71.5913 19.9913C71.9553 20.9576 72.1373 22.0893 72.1373 23.3865V24.548H59.2615V21.9272H68.1565C68.1565 21.3183 68.0241 20.7789 67.7594 20.309C67.4946 19.8391 67.1273 19.4718 66.6574 19.2071C66.1941 18.9357 65.6547 18.8001 65.0393 18.8001C64.3973 18.8001 63.8281 18.949 63.3317 19.2468C62.842 19.538 62.4581 19.9318 62.1802 20.4281C61.9022 20.9179 61.7599 21.4639 61.7533 22.0662V24.5579C61.7533 25.3124 61.8923 25.9643 62.1702 26.5136C62.4548 27.0629 62.8552 27.4865 63.3715 27.7843C63.8877 28.0822 64.4999 28.2311 65.208 28.2311C65.6779 28.2311 66.1081 28.1649 66.4986 28.0325C66.8891 27.9002 67.2233 27.7016 67.5012 27.4369C67.7792 27.1721 67.991 26.8479 68.1366 26.464L72.048 26.7221C71.8494 27.6619 71.4424 28.4826 70.8269 29.1841C70.218 29.879 69.4305 30.4217 68.4642 30.8122C67.5046 31.196 66.396 31.388 65.1385 31.388Z" fill="#000000"/>
<path d="M79.2453 31.378C78.2725 31.378 77.4055 31.2093 76.6444 30.8718C75.8833 30.5276 75.281 30.0213 74.8376 29.3529C74.4008 28.6778 74.1824 27.8373 74.1824 26.8313C74.1824 25.9842 74.3379 25.2727 74.649 24.6969C74.96 24.1211 75.3836 23.6579 75.9197 23.3071C76.4557 22.9563 77.0646 22.6916 77.7463 22.5129C78.4346 22.3342 79.156 22.2085 79.9105 22.1357C80.7973 22.043 81.5121 21.957 82.0548 21.8775C82.5975 21.7915 82.9913 21.6658 83.2361 21.5003C83.481 21.3348 83.6035 21.09 83.6035 20.7657V20.7061C83.6035 20.0774 83.4049 19.5909 83.0078 19.2468C82.6173 18.9026 82.0614 18.7306 81.34 18.7306C80.5789 18.7306 79.9733 18.8993 79.5233 19.2369C79.0733 19.5678 78.7754 19.9847 78.6298 20.4877L74.7185 20.17C74.917 19.2435 75.3075 18.4427 75.8899 17.7676C76.4723 17.0859 77.2235 16.5631 78.1434 16.1991C79.07 15.8285 80.1421 15.6431 81.3599 15.6431C82.207 15.6431 83.0177 15.7424 83.7921 15.941C84.573 16.1395 85.2646 16.4473 85.8669 16.8642C86.4758 17.2812 86.9556 17.8172 87.3064 18.4724C87.6571 19.121 87.8325 19.8987 87.8325 20.8054V31.0902H83.8219V28.9756H83.7027C83.4579 29.4521 83.1303 29.8724 82.7199 30.2364C82.3096 30.5938 81.8165 30.8751 81.2407 31.0802C80.665 31.2788 79.9998 31.378 79.2453 31.378ZM80.4565 28.4594C81.0786 28.4594 81.6279 28.337 82.1044 28.0921C82.5809 27.8406 82.9549 27.5031 83.2262 27.0795C83.4976 26.6559 83.6332 26.1761 83.6332 25.64V24.0219C83.5009 24.1079 83.3189 24.1873 83.0872 24.2601C82.8622 24.3263 82.6074 24.3892 82.3228 24.4487C82.0382 24.5017 81.7537 24.5513 81.4691 24.5976C81.1845 24.6374 80.9264 24.6738 80.6947 24.7068C80.1984 24.7796 79.7649 24.8955 79.3942 25.0543C79.0236 25.2131 78.7357 25.4282 78.5306 25.6996C78.3254 25.9643 78.2228 26.2952 78.2228 26.6923C78.2228 27.2681 78.4313 27.7082 78.8482 28.0127C79.2718 28.3105 79.8079 28.4594 80.4565 28.4594Z" fill="#000000"/>
<path d="M94.9455 26.7023L94.9554 21.6294H95.5709L100.455 15.8417H105.31L98.7477 23.5056H97.745L94.9455 26.7023ZM91.1135 31.0902V10.7589H95.3426V31.0902H91.1135ZM100.644 31.0902L96.1566 24.4487L98.976 21.4606L105.598 31.0902H100.644Z" fill="#000000"/>
<path d="M110.241 36.8083C109.705 36.8083 109.202 36.7653 108.732 36.6793C108.269 36.5999 107.885 36.4973 107.581 36.3715L108.534 33.2146C109.03 33.3668 109.477 33.4496 109.874 33.4628C110.278 33.476 110.625 33.3834 110.916 33.1848C111.214 32.9863 111.456 32.6488 111.641 32.1722L111.889 31.527L106.419 15.8417H110.867L114.023 27.0398H114.182L117.369 15.8417H121.846L115.92 32.7381C115.635 33.5588 115.248 34.2735 114.758 34.8824C114.275 35.4979 113.663 35.9711 112.922 36.302C112.18 36.6396 111.287 36.8083 110.241 36.8083Z" fill="#000000"/>
<path d="M20.402 17.0497C20.402 17.0497 22.2282 29.0092 27.6886 28.7806C33.1489 28.5521 29.013 7.79921 34.4424 7.02093C39.8718 6.24265 39.4568 26.0757 44.8055 26.0757C50.1543 26.0757 59.1803 2.67508 59.1803 2.67508" stroke="url(#paint0_linear_6_38)" stroke-width="5.34872" stroke-linecap="round"/>
<defs>
<linearGradient id="paint0_linear_6_38" x1="19.0649" y1="23.7357" x2="64.0438" y2="16.0796" gradientUnits="userSpaceOnUse">
<stop stop-color="#08512B"/>
<stop offset="0.25" stop-color="#0F64B5"/>
<stop offset="0.5" stop-color="#D13FF9"/>
<stop offset="0.7" stop-color="#F7451F"/>
<stop offset="1" stop-color="#F97183"/>
</linearGradient>
</defs>
</svg>
