<svg width="378" height="692" viewBox="0 0 378 692" fill="none" xmlns="http://www.w3.org/2000/svg">
<g opacity="0.4" filter="url(#filter0_f_105_127)">
<path d="M99.2543 253.845L65.7016 477.749L7.2872 451.543L-45.4258 412.978L-106.611 450.609L-118.071 476.809L-28.1849 516.885L21.2276 538.54L84.8597 479.304L172.319 379.773L177.08 353.249L99.2543 253.845Z" fill="#0D00FF"/>
<path d="M116.196 27.7071C157.245 57.7376 160.025 593.581 137.354 624.57C114.683 655.558 63.0284 656.335 21.9801 626.305C-19.0682 596.274 -132.16 294.159 -109.489 263.17C-86.8178 232.182 75.1481 -2.32333 116.196 27.7071Z" fill="#8E68D0"/>
<path d="M52.7976 62.3886C82.3241 65.434 94.361 208.799 79.6829 382.603C65.0047 556.407 29.1699 694.834 -0.356571 691.789C-29.883 688.744 -41.92 545.379 -27.2418 371.575C-12.5637 197.771 23.2712 59.3433 52.7976 62.3886Z" fill="#D87CB2"/>
<path d="M-28.2436 437.464C-5.78183 453.896 54.2182 395.482 110.962 372.992C157.915 354.383 163.998 427.494 153.733 441.526C146.954 450.791 155.114 480 129.465 526.686C69.3305 636.145 -8.14373 748.973 -36.9188 727.921C-77.9671 697.891 -99.662 576.359 -76.991 545.37C-54.32 514.381 -69.2919 407.433 -28.2436 437.464Z" fill="#56A8C9"/>
<path d="M-47.1782 361.351L-8.15724 580.66L13.6747 496.845L109.326 343.082L103.54 223.993L120.678 131.91L76.9907 99.9496L9.86633 100.025L-39.512 234.193L-47.1782 361.351Z" fill="#FB4D3C"/>
<path d="M34.2823 91.1639C69.3503 116.819 93.9996 503.683 72.6197 532.907C51.2399 562.131 27.9846 527.856 -7.08339 502.2C-42.1514 476.545 -16.4192 276.421 4.96066 247.197C26.3405 217.973 -0.78565 65.5086 34.2823 91.1639Z" fill="url(#paint0_linear_105_127)"/>
</g>
<defs>
<filter id="filter0_f_105_127" x="-318.071" y="-174.942" width="695.151" height="1105.42" filterUnits="userSpaceOnUse" color-interpolation-filters="sRGB">
<feFlood flood-opacity="0" result="BackgroundImageFix"/>
<feBlend mode="normal" in="SourceGraphic" in2="BackgroundImageFix" result="shape"/>
<feGaussianBlur stdDeviation="100" result="effect1_foregroundBlur_105_127"/>
</filter>
<linearGradient id="paint0_linear_105_127" x1="-98.3089" y1="255.429" x2="188.777" y2="465.457" gradientUnits="userSpaceOnUse">
<stop stop-color="#CA7F3C"/>
<stop offset="1" stop-color="#CA7F3C" stop-opacity="0.7"/>
</linearGradient>
</defs>
</svg>
